<svg xmlns="http://www.w3.org/2000/svg" width="24" height="24" viewBox="0 0 24 24">
  <g id="calendar-times_1" data-name="calendar-times 1" transform="translate(-35 -242)">
    <g id="Iconly_Curved_Calendar" data-name="Iconly/Curved/Calendar" transform="translate(35 242)" opacity="0.4">
      <g id="Calendar">
        <path id="Stroke_1" data-name="Stroke 1" d="M0,9.274C0,2.318,2.319,0,9.274,0s9.275,2.318,9.275,9.274-2.319,9.274-9.275,9.274S0,16.23,0,9.274Z" transform="translate(2.75 3.502)" fill="none" stroke="#000" stroke-linecap="round" stroke-linejoin="round" stroke-width="1.5"/>
        <path id="Stroke_3" data-name="Stroke 3" d="M0,.5H18.008" transform="translate(3.025 8.824)" fill="none" stroke="#000" stroke-linecap="round" stroke-linejoin="round" stroke-width="1.5"/>
        <path id="Stroke_5" data-name="Stroke 5" d="M.5.5H.5" transform="translate(15.933 12.761)" fill="none" stroke="#000" stroke-linecap="round" stroke-linejoin="round" stroke-width="1.5"/>
        <path id="Stroke_7" data-name="Stroke 7" d="M.5.5H.5" transform="translate(11.534 12.761)" fill="none" stroke="#000" stroke-linecap="round" stroke-linejoin="round" stroke-width="1.5"/>
        <path id="Stroke_9" data-name="Stroke 9" d="M.5.5H.5" transform="translate(7.126 12.761)" fill="none" stroke="#000" stroke-linecap="round" stroke-linejoin="round" stroke-width="1.5"/>
        <path id="Stroke_11" data-name="Stroke 11" d="M.5.5H.5" transform="translate(15.933 16.613)" fill="none" stroke="#000" stroke-linecap="round" stroke-linejoin="round" stroke-width="1.5"/>
        <path id="Stroke_13" data-name="Stroke 13" d="M.5.5H.5" transform="translate(11.534 16.613)" fill="none" stroke="#000" stroke-linecap="round" stroke-linejoin="round" stroke-width="1.5"/>
        <path id="Stroke_15" data-name="Stroke 15" d="M.5.5H.5" transform="translate(7.126 16.613)" fill="none" stroke="#000" stroke-linecap="round" stroke-linejoin="round" stroke-width="1.5"/>
        <path id="Stroke_17" data-name="Stroke 17" d="M.5,0V3.262" transform="translate(15.533 2.05)" fill="none" stroke="#000" stroke-linecap="round" stroke-linejoin="round" stroke-width="1.5"/>
        <path id="Stroke_19" data-name="Stroke 19" d="M.5,0V3.262" transform="translate(7.525 2.05)" fill="none" stroke="#000" stroke-linecap="round" stroke-linejoin="round" stroke-width="1.5"/>
      </g>
    </g>
  </g>
</svg>
