<svg xmlns="http://www.w3.org/2000/svg" xmlns:xlink="http://www.w3.org/1999/xlink" width="210" height="75" viewBox="0 0 210 75">
  <defs>
    <clipPath id="clip-path">
      <rect id="Rectangle_29" data-name="Rectangle 29" width="210" height="75" rx="10" transform="translate(326 215)" fill="#4f46ba"/>
    </clipPath>
  </defs>
  <g id="Group_686" data-name="Group 686" transform="translate(-326 -215)">
    <rect id="Rectangle_26" data-name="Rectangle 26" width="210" height="75" rx="10" transform="translate(326 215)" fill="#4f46ba"/>
    <g id="Mask_Group" data-name="Mask Group">
      <g id="Rectangle_29-2" data-name="Rectangle 29" clip-path="url(#clip-path)">
        <path id="Vector" d="M69.5.568c12.067-3.3,24.316,8.422,31.525,18.7,6.321,9.015,2.165,21.162,4.047,32.031,1.508,8.7,6.547,16.368,5.863,25.177-.833,10.731-2.814,21.955-10.132,29.807-8.07,8.658-19.534,15.451-31.3,14.65-11.565-.787-18.314-12.912-28.372-18.71C29.216,95.357,12.156,95.893,5.3,83.923-1.738,71.64-2.31,53.2,6.894,42.463c9.463-11.036,29.424-.711,41.486-8.783C59.506,26.235,56.609,4.1,69.5.568Z" transform="translate(529.796 151) rotate(33.507)" fill="#fdbc64"/>
        <path id="Vector-2" data-name="Vector" d="M69.5.568c12.067-3.3,24.316,8.422,31.525,18.7,6.321,9.015,2.165,21.162,4.047,32.031,1.508,8.7,6.547,16.368,5.863,25.177-.833,10.731-2.814,21.955-10.132,29.807-8.07,8.658-19.534,15.451-31.3,14.65-11.565-.787-18.314-12.912-28.372-18.71C29.216,95.357,12.156,95.893,5.3,83.923-1.738,71.64-2.31,53.2,6.894,42.463c9.463-11.036,29.424-.711,41.486-8.783C59.506,26.235,56.609,4.1,69.5.568Z" transform="translate(516.796 151) rotate(33.507)" fill="#fdbc64" opacity="0.1"/>
      </g>
    </g>
  </g>
</svg>
