<svg xmlns="http://www.w3.org/2000/svg" width="191.509" height="199.416" viewBox="0 0 191.509 199.416">
  <g id="myBg-3" transform="translate(-922 -175)">
    <path id="Vector" d="M78,.015c22.263.78,30.328,29.523,42.471,48.161C129.082,61.388,137.17,74.8,137,90.56c-.171,15.582-7.4,29.532-17.444,41.465C108.3,145.395,95.115,157.013,78,160.652c-21.809,4.638-47.711,8.97-64.053-6.17C-2.582,139.166-1.408,112.757,2.345,90.56c3.148-18.62,17.98-30.964,30.1-45.467C46.681,28.054,55.785-.763,78,.015Z" transform="matrix(0.95, -0.311, 0.311, 0.95, 932, 217.593)" fill="#84e8f4"/>
    <path id="Vector-2" data-name="Vector" d="M78,.015c22.263.78,30.328,29.523,42.471,48.161C129.082,61.388,137.17,74.8,137,90.56c-.171,15.582-7.4,29.532-17.444,41.465C108.3,145.395,95.115,157.013,78,160.652c-21.809,4.638-47.711,8.97-64.053-6.17C-2.582,139.166-1.408,112.757,2.345,90.56c3.148-18.62,17.98-30.964,30.1-45.467C46.681,28.054,55.785-.763,78,.015Z" transform="matrix(0.95, -0.311, 0.311, 0.95, 922, 217.593)" fill="#84e8f4" opacity="0.2"/>
  </g>
</svg>
